/* XPM */
static char *_c4bffed6a2343fec53ba15f88f4ad5b[] = {
/* columns rows colors chars-per-pixel */
"16 16 61 1 ",
"  c #B5C9C8",
". c #B6CAC9",
"X c #B8CBCA",
"o c #B9CCCC",
"O c #BBCDCD",
"+ c #BBCECD",
"@ c #BCCECE",
"# c #BCCFCE",
"$ c #BDCFCF",
"% c #C1D2D1",
"& c #C2D3D2",
"* c #C4D4D4",
"= c #C5D5D4",
"- c #C7D6D5",
"; c #CAD8D7",
": c #CCDAD9",
"> c #CEDBDB",
", c #CEDCDB",
"< c #CFDDDC",
"1 c #D1DEDD",
"2 c #D2DEDE",
"3 c #D4E0DF",
"4 c #D6E1E0",
"5 c #DBE5E4",
"6 c #DCE6E5",
"7 c #DDE6E6",
"8 c #DEE7E7",
"9 c #DFE7E7",
"0 c #DFE8E7",
"q c #DFE8E8",
"w c #E0E8E8",
"e c #E1E9E8",
"r c #E1E9E9",
"t c #E2EAE9",
"y c #E3EAEA",
"u c #E3EBEA",
"i c #E3EBEB",
"p c #E5ECEB",
"a c #E5ECEC",
"s c #E6EDEC",
"d c #E6EDED",
"f c #E8EEEE",
"g c #EAF0F0",
"h c #ECF1F1",
"j c #EDF2F2",
"k c #EEF3F2",
"l c #F6F8F8",
"z c #F7F9F9",
"x c #F8F9F9",
"c c #F8FAFA",
"v c #F9FAFA",
"b c #F9FBFB",
"n c gray98",
"m c #F9FCFC",
"M c #FBFCFC",
"N c #FCFDFD",
"B c #FDFDFD",
"V c #FDFEFE",
"C c #FEFEFE",
"Z c gray100",
"A c None",
/* pixels */
"AAAAAAAAAAAAAAAA",
"AAAAZZZZZZZZAAAA",
"AAAvZvMvZZZZZAAA",
"AAvs%3ii55hZZZAA",
"AZZvO0ZZZi;9ZZZA",
"AZZvO0ZZZZ9OgZZA",
"AZvi.<pszZzO1ZZA",
"AZZs#1hhZZZ*%MZA",
"AZzu.:ipzZZ%%vZA",
"AZZvO9ZZZZM$<ZZA",
"AZZz#0ZZZZi.sZZA",
"AZZlO3MMvs:5ZZZA",
"AAMs=:wiiqhZZZAA",
"AAAZZZZZZZZZZAAA",
"AAAAZZZZZZZZAAAA",
"AAAAAAAAAAAAAAAA"
};
