/* XPM */
static char *_ac37b5ba2574163e20cab78aaa125b4[] = {
/* columns rows colors chars-per-pixel */
"64 64 122 2 ",
"   c #ACC3C2",
".  c #ADC3C2",
"X  c #ADC4C3",
"o  c #AEC4C3",
"O  c #AEC5C4",
"+  c #AFC5C4",
"@  c #B0C5C5",
"#  c #B0C6C5",
"$  c #B1C6C5",
"%  c #B1C6C6",
"&  c #B1C7C6",
"*  c #B2C7C6",
"=  c #B3C8C7",
"-  c #B4C8C7",
";  c #B4C8C8",
":  c #B5C9C8",
">  c #B5C9C9",
",  c #B5CAC9",
"<  c #B6CAC9",
"1  c #B6CACA",
"2  c #B7CACA",
"3  c #B7CBCA",
"4  c #B8CBCA",
"5  c #B8CCCB",
"6  c #B9CCCB",
"7  c #B9CCCC",
"8  c #BACDCC",
"9  c #BCCECD",
"0  c #BDCFCE",
"q  c #BDCFCF",
"w  c #BED0CF",
"e  c #BFD0CF",
"r  c #BFD0D0",
"t  c #C0D1D0",
"y  c #C0D1D1",
"u  c #C0D2D1",
"i  c #C1D2D1",
"p  c #C2D2D2",
"a  c #C2D3D2",
"s  c #C3D3D2",
"d  c #C3D3D3",
"f  c #C4D4D4",
"g  c #C5D5D4",
"h  c #C6D6D5",
"j  c #C7D6D5",
"k  c #C7D6D6",
"l  c #C7D7D6",
"z  c #C8D7D6",
"x  c #C9D8D7",
"c  c #CAD8D8",
"v  c #CBD9D8",
"b  c #CDDBDA",
"n  c #CEDBDB",
"m  c #CEDCDB",
"M  c #CFDCDC",
"N  c #D0DDDC",
"B  c #D1DDDD",
"V  c #D1DEDD",
"C  c #D2DEDD",
"Z  c #D2DEDE",
"A  c #D3DFDE",
"S  c #D4E0DF",
"D  c #D4E0E0",
"F  c #D5E0E0",
"G  c #D5E1E0",
"H  c #D6E1E1",
"J  c #D7E2E1",
"K  c #D7E2E2",
"L  c #D8E2E2",
"P  c #D8E3E2",
"I  c #D9E3E2",
"U  c #D9E3E3",
"Y  c #DAE4E3",
"T  c #DAE4E4",
"R  c #DCE6E5",
"E  c #DDE6E5",
"W  c #DDE6E6",
"Q  c #DFE8E7",
"!  c #E1E9E8",
"~  c #E1E9E9",
"^  c #E4EBEB",
"/  c #E5ECEB",
"(  c #E5ECEC",
")  c #E7EDED",
"_  c #E7EEED",
"`  c #E7EEEE",
"'  c #E8EEEE",
"]  c #E8EFEE",
"[  c #E9EFEE",
"{  c #E9EFEF",
"}  c #EAEFEF",
"|  c #EAF0EF",
" . c #EAF0F0",
".. c #EBF0F0",
"X. c #EBF1F0",
"o. c #ECF1F1",
"O. c #EDF2F1",
"+. c #EDF2F2",
"@. c #EEF2F2",
"#. c #F0F4F3",
"$. c #F0F4F4",
"%. c #F1F5F4",
"&. c #F1F5F5",
"*. c #F2F5F5",
"=. c #F4F7F7",
"-. c #F5F7F7",
";. c #F5F8F8",
":. c #F6F8F8",
">. c #F7F9F9",
",. c #F8FAF9",
"<. c #F8FAFA",
"1. c #F9FAFA",
"2. c #F9FBFB",
"3. c #FAFBFB",
"4. c #FBFCFC",
"5. c gray99",
"6. c #FCFDFD",
"7. c #FDFDFD",
"8. c #FDFEFE",
"9. c #FEFEFE",
"0. c gray100",
"q. c None",
/* pixels */
"q.q.q.q.q.q.q.q.q.q.q.q.q.q.q.q.q.q.q.q.q.q.q.q.q.q.q.q.q.q.q.q.q.q.q.q.q.q.q.q.q.q.q.q.q.q.q.q.q.q.q.q.q.q.q.q.q.q.q.q.q.q.q.q.",
"q.q.q.q.q.q.q.q.q.q.q.q.q.q.q.q.q.q.q.q.q.q.q.q.q.q.q.q.q.q.q.q.q.q.q.q.q.q.q.q.q.q.q.q.q.q.q.q.q.q.q.q.q.q.q.q.q.q.q.q.q.q.q.q.",
"q.q.q.q.q.q.q.q.q.q.q.q.q.q.q.q.q.q.q.q.q.q.q.q.q.q.q.q.0.0.0.0.0.0.0.0.q.q.q.q.q.q.q.q.q.q.q.q.q.q.q.q.q.q.q.q.q.q.q.q.q.q.q.q.",
"q.q.q.q.q.q.q.q.q.q.q.q.q.q.q.q.q.q.q.q.q.q.q.0.0.0.0.0.0.0.0.0.0.0.0.0.0.0.0.0.q.q.q.q.q.q.q.q.q.q.q.q.q.q.q.q.q.q.q.q.q.q.q.q.",
"q.q.q.q.q.q.q.q.q.q.q.q.q.q.q.q.q.q.q.q.q.0.0.0.0.0.0.0.0.0.0.0.0.0.0.0.0.0.0.0.0.0.0.q.q.q.q.q.q.q.q.q.q.q.q.q.q.q.q.q.q.q.q.q.",
"q.q.q.q.q.q.q.q.q.q.q.q.q.q.q.q.q.q.0.0.0.0.0.0.0.0.0.0.0.0.0.0.0.0.0.0.0.0.0.0.0.0.0.0.0.q.q.q.q.q.q.q.q.q.q.q.q.q.q.q.q.q.q.q.",
"q.q.q.q.q.q.q.q.q.q.q.q.q.q.q.q.q.0.0.0.0.0.0.0.0.0.0.0.0.0.0.0.0.0.0.0.0.0.0.0.0.0.0.0.0.0.0.q.q.q.q.q.q.q.q.q.q.q.q.q.q.q.q.q.",
"q.q.q.q.q.q.q.q.q.q.q.q.q.q.q.0.0.0.0.0.0.0.0.0.0.0.0.0.0.0.0.0.0.0.0.0.0.0.0.0.0.0.0.0.0.0.0.0.0.q.q.q.q.q.q.q.q.q.q.q.q.q.q.q.",
"q.q.q.q.q.q.q.q.q.q.q.q.q.q.0.0.0.0.0.0.0.0.0.0.0.0.0.0.0.0.0.0.0.0.0.0.0.0.0.0.0.0.0.0.0.0.0.0.0.0.q.q.q.q.q.q.q.q.q.q.q.q.q.q.",
"q.q.q.q.q.q.q.q.q.q.q.q.0.0.0.0.0.0.0.0.0.0.0.0.0.0.0.0.0.0.0.0.0.0.0.0.0.0.0.0.0.0.0.0.0.0.0.0.0.0.0.q.q.q.q.q.q.q.q.q.q.q.q.q.",
"q.q.q.q.q.q.q.q.q.q.q.0.0.0.0.0.0.0.0.0.0.0.0.0.0.0.0.0.0.0.0.0.0.0.0.0.0.0.0.0.0.0.0.0.0.0.0.0.0.0.0.0.q.q.q.q.q.q.q.q.q.q.q.q.",
"q.q.q.q.q.q.q.q.q.q.0.0.0.0.0.0.0.0.0.0.0.0.0.0.0.0.0.0.0.0.0.0.0.0.0.0.0.0.0.0.0.0.0.0.0.0.0.0.0.0.0.0.0.q.q.q.q.q.q.q.q.q.q.q.",
"q.q.q.q.q.q.q.q.q.0.0.0.o._ _ _ ) ) ) _ ) ) ) ] _ ] ] ( ] _ _ { o.=.,.5.0.0.0.0.0.0.0.0.0.0.0.0.0.0.0.0.0.0.q.q.q.q.q.q.q.q.q.q.",
"q.q.q.q.q.q.q.q.q.0.0.0.J e = o o o o o o @ @ # # # # # # # # # # , 9 j J ( >.0.0.0.0.0.0.0.0.0.0.0.0.0.0.0.0.q.q.q.q.q.q.q.q.q.",
"q.q.q.q.q.q.q.q.0.0.0.0.4.,.^ t o         z _ _ ] ^ ] ] ( ( ~ J n t ,     @ 9 F o.0.0.0.0.0.0.0.0.0.0.0.0.0.0.0.q.q.q.q.q.q.q.q.",
"q.q.q.q.q.q.q.0.0.0.0.0.0.0.0.^ @     o o S 0.0.0.0.0.0.0.0.0.0.0.,.o.U r       , B $.0.0.0.0.0.0.0.0.0.0.0.0.0.0.q.q.q.q.q.q.q.",
"q.q.q.q.q.q.0.0.0.0.0.0.0.0.0.,.e         S 0.0.0.0.0.0.0.0.0.0.0.0.0.0.=.U 4       9 Q 0.0.0.0.0.0.0.0.0.0.0.0.0.q.q.q.q.q.q.q.",
"q.q.q.q.q.q.0.0.0.0.0.0.0.0.0.3.c         J 0.0.0.0.0.0.0.0.0.0.0.0.0.0.0.0.] f       # D ,.0.0.0.0.0.0.0.0.0.0.0.0.q.q.q.q.q.q.",
"q.q.q.q.q.0.0.0.0.0.0.0.0.0.0.0.B         S 0.0.0.0.0.0.0.0.0.0.0.0.0.0.0.0.0.#.j         M ,.0.0.0.0.0.0.0.0.0.0.0.q.q.q.q.q.q.",
"q.q.q.q.q.0.0.0.0.0.0.0.0.0.0.0.S         J 0.0.0.0.0.0.0.0.0.0.0.0.0.0.0.0.0.0.$.f         B 5.0.0.0.0.0.0.0.0.0.0.0.q.q.q.q.q.",
"q.q.q.q.0.0.0.0.0.0.0.0.0.0.0.0.S         S 0.0.0.0.0.0.0.0.0.0.0.0.0.0.0.0.0.0.0._ ,       o T 0.0.0.0.0.0.0.0.0.0.0.q.q.q.q.q.",
"q.q.q.q.0.0.0.0.0.0.0.0.0.0.0.0.D         J 0.0.0.0.0.0.0.0.0.0.0.0.0.0.0.0.0.0.0.0.U         , _ 0.0.0.0.0.0.0.0.0.0.0.q.q.q.q.",
"q.q.q.q.0.0.0.0.0.0.0.0.0.0.0.0.J         J 0.0.0.0.0.0.0.0.0.0.0.0.0.0.0.0.0.0.0.0.=.9         f 3.0.0.0.0.0.0.0.0.0.0.q.q.q.q.",
"q.q.q.0.0.0.0.0.0.0.0.0.0.0.0.0.S         D 0.0.0.0.0.0.0.0.0.0.0.0.0.0.0.0.0.0.0.0.0.U         # ! 0.0.0.0.0.0.0.0.0.0.q.q.q.q.",
"q.q.q.0.0.0.0.0.0.0.0.0.0.0.0.0.D         J 0.0.0.0.0.0.0.0.0.0.0.0.0.0.0.0.0.0.0.0.0.$.,       o f ,.0.0.0.0.0.0.0.0.0.0.q.q.q.",
"q.q.q.0.0.0.0.0.0.0.0.0.4.0.0.3.S         S 0.4.4.4.4.0.4.0.5.0.0.0.0.0.0.0.0.0.0.0.0.4.j       o # o.0.0.0.0.0.0.0.0.0.0.q.q.q.",
"q.q.q.0.0.0.0.0.0.0.0.o.f f f t 3         4 d d d f t f f f d t Q 0.0.0.0.0.0.0.0.0.0.0.T       o   U 0.0.0.0.0.0.0.0.0.0.q.q.q.",
"q.q.0.0.0.0.0.0.0.0.0.] 7 , , , #         # , , , , , , , , , , U 0.0.0.0.0.0.0.0.0.0.0.] #         f 0.0.0.0.0.0.0.0.0.0.q.q.q.",
"q.q.0.0.0.0.0.0.0.0.0.0.=.=.=.=.M o       m =.=.=.=.=.=.=.=.=.=.,.0.0.0.0.0.0.0.0.0.0.0.=.,         6 >.0.0.0.0.0.0.0.0.0.q.q.q.",
"q.q.0.0.0.0.0.0.0.0.0.0.0.0.0.0.S         J 0.0.0.0.0.0.0.0.0.0.0.0.0.0.0.0.0.0.0.0.0.0.;.7         ; $.0.0.0.0.0.0.0.0.0.0.q.q.",
"q.q.0.0.0.0.0.0.0.0.0.0.0.0.0.0.J         S 0.0.0.0.0.0.0.0.0.0.0.0.0.0.0.0.0.0.0.0.0.0.,.t         + X.0.0.0.0.0.0.0.0.0.0.q.q.",
"q.q.0.0.0.0.0.0.0.0.0.0.4.4.0.4.S         S 4.4.0.4.4.0.4.4.4.0.0.0.0.0.0.0.0.0.0.0.0.0.0.t       o + ] 0.0.0.0.0.0.0.0.0.0.q.q.",
"q.q.0.0.0.0.0.0.0.0.0.X.f d f t ,         4 d d d d d d d d d d ! 0.0.0.0.0.0.0.0.0.0.0.4.t         o _ 0.0.0.0.0.0.0.0.0.0.q.q.",
"q.q.0.0.0.0.0.0.0.0.0._ 6 4 , , #         # , , 4 , , , 4 , , , T 0.0.0.0.0.0.0.0.0.0.0.0.t         # ] 0.0.0.0.0.0.0.0.0.0.q.q.",
"q.q.0.0.0.0.0.0.0.0.0.0.=.=.=.=.B o       B =.=.=.=.=.=.=.=.=.=.,.0.0.0.0.0.0.0.0.0.0.0.,.q         # o.0.0.0.0.0.0.0.0.0.0.q.q.",
"q.q.0.0.0.0.0.0.0.0.0.0.0.0.0.0.S       o S 0.0.0.0.0.0.0.0.0.0.0.0.0.0.0.0.0.0.0.0.0.0.>.5         * =.0.0.0.0.0.0.0.0.0.q.q.q.",
"q.q.0.0.0.0.0.0.0.0.0.0.0.0.0.0.S         S 0.0.0.0.0.0.0.0.0.0.0.0.0.0.0.0.0.0.0.0.0.0.$.,         9 ,.0.0.0.0.0.0.0.0.0.q.q.q.",
"q.q.q.0.0.0.0.0.0.0.0.0.0.0.0.0.J o       J 0.0.0.0.0.0.0.0.0.0.0.0.0.0.0.0.0.0.0.0.0.0.( +         c 5.0.0.0.0.0.0.0.0.0.q.q.q.",
"q.q.q.0.0.0.0.0.0.0.0.0.0.0.0.0.S         S 0.0.0.0.0.0.0.0.0.0.0.0.0.0.0.0.0.0.0.0.0.0.D           Q 0.0.0.0.0.0.0.0.0.0.q.q.q.",
"q.q.q.0.0.0.0.0.0.0.0.0.0.0.0.0.S         S 0.0.0.0.0.0.0.0.0.0.0.0.0.0.0.0.0.0.0.0.0.4.t         4 $.0.0.0.0.0.0.0.0.0.0.q.q.q.",
"q.q.q.0.0.0.0.0.0.0.0.0.0.0.0.0.J         S 0.0.0.0.0.0.0.0.0.0.0.0.0.0.0.0.0.0.0.0.0._ #         M 0.0.0.0.0.0.0.0.0.0.q.q.q.q.",
"q.q.q.q.0.0.0.0.0.0.0.0.0.0.0.0.S         J 0.0.0.0.0.0.0.0.0.0.0.0.0.0.0.0.0.0.0.0.0.n         , ] 0.0.0.0.0.0.0.0.0.0.q.q.q.q.",
"q.q.q.q.0.0.0.0.0.0.0.0.0.0.0.0.J         S 0.0.0.0.0.0.0.0.0.0.0.0.0.0.0.0.0.0.0.0.^ *       + J 0.0.0.0.0.0.0.0.0.0.0.q.q.q.q.",
"q.q.q.q.0.0.0.0.0.0.0.0.0.0.0.0.S         M 0.0.0.0.0.0.0.0.0.0.0.0.0.0.0.0.0.0.0.,.f         j =.0.0.0.0.0.0.0.0.0.0.q.q.q.q.q.",
"q.q.q.q.q.0.0.0.0.0.0.0.0.0.0.0.B         m 0.0.0.0.0.0.0.0.0.0.0.0.0.0.0.0.0.0.5.B         t o.0.0.0.0.0.0.0.0.0.0.0.q.q.q.q.q.",
"q.q.q.q.q.0.0.0.0.0.0.0.0.0.0.0.M         f 4.0.0.0.0.0.0.0.0.0.0.0.0.0.0.0.0.0.S o       t ] 0.0.0.0.0.0.0.0.0.0.0.q.q.q.q.q.q.",
"q.q.q.q.q.q.0.0.0.0.0.0.0.0.0.3.f o       6 =.0.0.0.0.0.0.0.0.0.0.0.0.0.0.0.$.M o       z o.0.0.0.0.0.0.0.0.0.0.0.0.q.q.q.q.q.q.",
"q.q.q.q.q.q.0.0.0.0.0.0.0.0.0.%.3         o R 0.0.0.0.0.0.0.0.0.0.0.0.0.=.Q 9       6 U ,.0.0.0.0.0.0.0.0.0.0.0.0.q.q.q.q.q.q.q.",
"q.q.q.q.q.q.q.0.0.0.0.0.0.0.,.A             5 Q =.4.0.4.4.4.0.4.>.=._ B e +     7 B o.0.0.0.0.0.0.0.0.0.0.0.0.0.0.q.q.q.q.q.q.q.",
"q.q.q.q.q.q.q.q.0.0.0.0.] R j o               # 4 q f t d d t r 9 , +   + 7 j Q =.0.0.0.0.0.0.0.0.0.0.0.0.0.0.0.q.q.q.q.q.q.q.q.",
"q.q.q.q.q.q.q.q.0.0.0.0.J d f t d d f t d t f t d t f t d d d d j n B Q X.=.,.0.0.0.0.0.0.0.0.0.0.0.0.0.0.0.0.q.q.q.q.q.q.q.q.q.",
"q.q.q.q.q.q.q.q.q.0.0.0.4.0.,.0.,.,.0.4.0.4.0.4.0.0.5.0.4.0.4.4.0.0.0.0.0.0.0.0.0.0.0.0.0.0.0.0.0.0.0.0.0.0.q.q.q.q.q.q.q.q.q.q.",
"q.q.q.q.q.q.q.q.q.q.0.0.0.0.0.0.0.0.0.0.0.0.0.0.0.0.0.0.0.0.0.0.0.0.0.0.0.0.0.0.0.0.0.0.0.0.0.0.0.0.0.0.0.0.q.q.q.q.q.q.q.q.q.q.",
"q.q.q.q.q.q.q.q.q.q.q.0.0.0.0.0.0.0.0.0.0.0.0.0.0.0.0.0.0.0.0.0.0.0.0.0.0.0.0.0.0.0.0.0.0.0.0.0.0.0.0.0.0.q.q.q.q.q.q.q.q.q.q.q.",
"q.q.q.q.q.q.q.q.q.q.q.q.0.0.0.0.0.0.0.0.0.0.0.0.0.0.0.0.0.0.0.0.0.0.0.0.0.0.0.0.0.0.0.0.0.0.0.0.0.0.0.q.q.q.q.q.q.q.q.q.q.q.q.q.",
"q.q.q.q.q.q.q.q.q.q.q.q.q.0.0.0.0.0.0.0.0.0.0.0.0.0.0.0.0.0.0.0.0.0.0.0.0.0.0.0.0.0.0.0.0.0.0.0.0.0.q.q.q.q.q.q.q.q.q.q.q.q.q.q.",
"q.q.q.q.q.q.q.q.q.q.q.q.q.q.q.0.0.0.0.0.0.0.0.0.0.0.0.0.0.0.0.0.0.0.0.0.0.0.0.0.0.0.0.0.0.0.0.0.0.q.q.q.q.q.q.q.q.q.q.q.q.q.q.q.",
"q.q.q.q.q.q.q.q.q.q.q.q.q.q.q.q.0.0.0.0.0.0.0.0.0.0.0.0.0.0.0.0.0.0.0.0.0.0.0.0.0.0.0.0.0.0.0.q.q.q.q.q.q.q.q.q.q.q.q.q.q.q.q.q.",
"q.q.q.q.q.q.q.q.q.q.q.q.q.q.q.q.q.q.0.0.0.0.0.0.0.0.0.0.0.0.0.0.0.0.0.0.0.0.0.0.0.0.0.0.0.0.q.q.q.q.q.q.q.q.q.q.q.q.q.q.q.q.q.q.",
"q.q.q.q.q.q.q.q.q.q.q.q.q.q.q.q.q.q.q.q.0.0.0.0.0.0.0.0.0.0.0.0.0.0.0.0.0.0.0.0.0.0.0.0.q.q.q.q.q.q.q.q.q.q.q.q.q.q.q.q.q.q.q.q.",
"q.q.q.q.q.q.q.q.q.q.q.q.q.q.q.q.q.q.q.q.q.q.q.0.0.0.0.0.0.0.0.0.0.0.0.0.0.0.0.0.0.q.q.q.q.q.q.q.q.q.q.q.q.q.q.q.q.q.q.q.q.q.q.q.",
"q.q.q.q.q.q.q.q.q.q.q.q.q.q.q.q.q.q.q.q.q.q.q.q.q.q.q.0.0.0.0.0.0.0.0.0.0.q.q.q.q.q.q.q.q.q.q.q.q.q.q.q.q.q.q.q.q.q.q.q.q.q.q.q.",
"q.q.q.q.q.q.q.q.q.q.q.q.q.q.q.q.q.q.q.q.q.q.q.q.q.q.q.q.q.q.q.q.q.q.q.q.q.q.q.q.q.q.q.q.q.q.q.q.q.q.q.q.q.q.q.q.q.q.q.q.q.q.q.q.",
"q.q.q.q.q.q.q.q.q.q.q.q.q.q.q.q.q.q.q.q.q.q.q.q.q.q.q.q.q.q.q.q.q.q.q.q.q.q.q.q.q.q.q.q.q.q.q.q.q.q.q.q.q.q.q.q.q.q.q.q.q.q.q.q."
};
