/* XPM */
static char *_8603887f9b54d52c8591a8f9f1f1fe7[] = {
/* columns rows colors chars-per-pixel */
"32 32 90 1 ",
"  c #ACC3C2",
". c #ADC3C2",
"X c #ADC4C3",
"o c #AFC5C4",
"O c #B0C6C5",
"+ c #B3C8C7",
"@ c #B4C9C8",
"# c #B7CBCA",
"$ c #BACDCC",
"% c #BCCECE",
"& c #BED0CF",
"* c #BFD1D0",
"= c #C0D1D0",
"- c #C0D1D1",
"; c #C1D2D1",
": c #C2D2D2",
"> c #C2D3D2",
", c #C3D3D3",
"< c #C5D5D4",
"1 c #C6D5D5",
"2 c #C6D6D5",
"3 c #C8D7D7",
"4 c #C9D8D7",
"5 c #CAD8D8",
"6 c #CBD9D9",
"7 c #CBDAD9",
"8 c #CCDAD9",
"9 c #CDDADA",
"0 c #CDDBDA",
"q c #CEDBDB",
"w c #CEDCDB",
"e c #CFDCDC",
"r c #D1DDDD",
"t c #D1DEDD",
"y c #D2DEDE",
"u c #D3DFDF",
"i c #D4E0DF",
"p c #D5E0E0",
"a c #D5E1E0",
"s c #D6E1E0",
"d c #D7E2E1",
"f c #D8E3E2",
"g c #D9E3E3",
"h c #DAE4E4",
"j c #DCE5E5",
"k c #DCE6E5",
"l c #DDE6E6",
"z c #DEE7E6",
"x c #DEE7E7",
"c c #DFE7E7",
"v c #DFE8E7",
"b c #DFE8E8",
"n c #E0E8E8",
"m c #E2EAEA",
"M c #E3EBEA",
"N c #E4EBEB",
"B c #E6EDEC",
"V c #E8EEEE",
"C c #E9EFEF",
"Z c #EAEFEF",
"A c #EAF0EF",
"S c #EAF0F0",
"D c #EBF0F0",
"F c #EBF1F0",
"G c #ECF1F1",
"H c #EDF2F1",
"J c #EDF2F2",
"K c #EEF2F2",
"L c #EEF3F3",
"P c #F0F4F4",
"I c #F1F5F5",
"U c #F2F5F5",
"Y c #F2F6F5",
"T c #F3F6F6",
"R c #F4F7F6",
"E c #F4F7F7",
"W c #F5F8F8",
"Q c #F6F8F8",
"! c #F7F9F9",
"~ c #F8FAFA",
"^ c #F9FAFA",
"/ c #FAFBFB",
"( c #FBFCFC",
") c gray99",
"_ c #FCFDFD",
"` c #FDFDFD",
"' c #FDFEFE",
"] c #FEFEFE",
"[ c gray100",
"{ c None",
/* pixels */
"{{{{{{{{{{{{{{{{{{{{{{{{{{{{{{{{",
"{{{{{{{{{{{{{[[[[[[{{{{{{{{{{{{{",
"{{{{{{{{{{[[[[[[[[[[[[{{{{{{{{{{",
"{{{{{{{{[[[[[[[[[[[[[[[[{{{{{{{{",
"{{{{{{{[[[[[[[[[[[[[[[[[[{{{{{{{",
"{{{{{[[[[[[[[[[[[[[[[[[[[[{{{{{{",
"{{{{[^me777r0rrrrkS![[[[[[[{{{{{",
"{{{{[[!ko *KKKKZb0%*h![[[[[[{{{{",
"{{{[[[[^% >[[[[[[[Z7 2Z[[[[[[{{{",
"{{{[[[[^> >([[[[[[[!0 &Z[[[[[{{{",
"{{[[[[[[, ,([[[[[[[[P> >P[[[[[{{",
"{{[[[[[(, >[[[[[[[[[[k  d[[[[[{{",
"{[[[[[^!> >W^^^^[[[[[E% $P[[[[{{",
"{[[[[P02o O22223Z[[[[[4  m[[[[[{",
"{[[[[[PP> >IWWPW[[[[[[i  d[[[[[{",
"{[[[[[^^> >W^^/^[[[[[[k  e[[[[[{",
"{[[[[L02O O22224Z[[[[[k  0[[[[[{",
"{[[[[[WP> >PEEEE([[[[[d Xr[[[[[{",
"{[[[[[[(, >([[[[[[[[[[e  k[[[[[{",
"{[[[[[[/, >[[[[[[[[[[^& #K[[[[{{",
"{{[[[[[[, ,[[[[[[[[[[Bo 7[[[[[{{",
"{{[[[[[), >/[[[[[[[[^3 $Z[[[[[{{",
"{{{[[[[/> &/[[[[[[[(d #m[[[[[{{{",
"{{{[[[[W$ @S[[[[[[G0 >m[[[[[[{{{",
"{{{{[[Ar   >dnvkd7&2j![[[[[[{{{{",
"{{{{[[GkkkmcnnvnmGP^[[[[[[[{{{{{",
"{{{{{[[[[[[[[[[[[[[[[[[[[[[{{{{{",
"{{{{{{[[[[[[[[[[[[[[[[[[[{{{{{{{",
"{{{{{{{{[[[[[[[[[[[[[[[[{{{{{{{{",
"{{{{{{{{{{[[[[[[[[[[[[{{{{{{{{{{",
"{{{{{{{{{{{{[[[[[[[{{{{{{{{{{{{{",
"{{{{{{{{{{{{{{{{{{{{{{{{{{{{{{{{"
};
